<svg version="1.1" xmlns="http://www.w3.org/2000/svg" viewBox="0 0 100.783 29.8">
  <g fill="none" fill-rule="evenodd">
    <g transform="translate(0, -1)">
      <polygon fill="#1E1E1E" points="0 4.69269832 0 21.2796816 3.05664804 21.2796816 3.05664804 15.9007989 7.36944134 21.2796816 10.9238547 21.2796816 6.01893855 15.2847095 10.7815642 9.43186034 7.1324581 9.43186034 3.05664804 14.6448212 3.05664804 4.69269832"></polygon>
      <g transform="translate(11.229050, 0.100223)">
        <path fill="#1E1E1E" d="M6.44240782,18.5967263 C7.39017318,18.5967263 8.17218436,18.2886816 8.78827374,17.6725922 C9.42799441,17.0328715 9.73603911,16.2270615 9.73603911,15.2554972 C9.73603911,14.2841006 9.42799441,13.4782905 8.78827374,12.8623687 C8.17218436,12.2224804 7.39017318,11.9144358 6.44240782,11.9144358 C5.49464246,11.9144358 4.71263128,12.2224804 4.0965419,12.8623687 C3.48045251,13.4782905 3.17240782,14.2841006 3.17240782,15.2554972 C3.17240782,16.2270615 3.48045251,17.0328715 4.0965419,17.6725922 C4.71263128,18.2886816 5.49464246,18.5967263 6.44240782,18.5967263 L6.44240782,18.5967263 Z M9.73603911,9.33158659 L12.7930223,9.33158659 L12.7930223,21.1795754 L9.73603911,21.1795754 L9.73603911,19.7814749 C8.81207263,20.9425922 7.53246369,21.5112514 5.87358101,21.5112514 C4.28609497,21.5112514 2.93542458,20.9187933 1.79810615,19.7104134 C0.684418994,18.5018659 0.115592179,17.0090726 0.115592179,15.2554972 C0.115592179,13.5020894 0.684418994,12.0329274 1.79810615,10.8245475 C2.93542458,9.616 4.28609497,8.99991061 5.87358101,8.99991061 C7.53246369,8.99991061 8.81207263,9.56856983 9.73603911,10.7296872 L9.73603911,9.33158659 Z"></path>
        <polygon fill="#1E1E1E" points="26.9079888 21.1795084 23.3535754 21.1795084 19.0411173 15.8006257 19.0411173 21.1795084 15.9841341 21.1795084 15.9841341 4.59252514 19.0411173 4.59252514 19.0411173 14.544648 23.1167598 9.33168715 26.7658659 9.33168715 22.002905 15.1843687"></polygon>
        <path fill="#1E1E1E" d="M33.6557598,18.5967263 C34.6035251,18.5967263 35.3855363,18.2886816 36.0016257,17.6725922 C36.6413464,17.0328715 36.9493911,16.2270615 36.9493911,15.2554972 C36.9493911,14.2841006 36.6413464,13.4782905 36.0016257,12.8623687 C35.3855363,12.2224804 34.6035251,11.9144358 33.6557598,11.9144358 C32.7079944,11.9144358 31.9259832,12.2224804 31.3098939,12.8623687 C30.6936369,13.4782905 30.3855922,14.2841006 30.3855922,15.2554972 C30.3855922,16.2270615 30.6936369,17.0328715 31.3098939,17.6725922 C31.9259832,18.2886816 32.7079944,18.5967263 33.6557598,18.5967263 L33.6557598,18.5967263 Z M36.9493911,9.33158659 L40.0062067,9.33158659 L40.0062067,21.1795754 L36.9493911,21.1795754 L36.9493911,19.7814749 C36.0254246,20.9425922 34.7458156,21.5112514 33.086933,21.5112514 C31.4994469,21.5112514 30.1487765,20.9187933 29.0112905,19.7104134 C27.8977709,18.5018659 27.3289441,17.0090726 27.3289441,15.2554972 C27.3289441,13.5020894 27.8977709,12.0329274 29.0112905,10.8245475 C30.1487765,9.616 31.4994469,8.99991061 33.086933,8.99991061 C34.7458156,8.99991061 36.0254246,9.56856983 36.9493911,10.7296872 L36.9493911,9.33158659 Z"></path>
        <path fill="#1E1E1E" d="M48.7891508,18.5256983 C49.7134525,18.5256983 50.4716648,18.217486 51.0877542,17.6013966 C51.7038436,16.9853073 52.0118883,16.2034637 52.0118883,15.2555307 C52.0118883,14.3077654 51.7038436,13.5257542 51.0877542,12.9096648 C50.4716648,12.2935754 49.7134525,11.9855307 48.7891508,11.9855307 C47.8650168,11.9855307 47.1068045,12.2935754 46.4907151,12.9096648 C45.898257,13.5257542 45.5902123,14.3077654 45.5902123,15.2555307 C45.5902123,16.2034637 45.898257,16.9853073 46.4907151,17.6013966 C47.1068045,18.217486 47.8650168,18.5256983 48.7891508,18.5256983 M48.7891508,21.5112849 C47.035743,21.5112849 45.5429497,20.9188268 44.3344022,19.7102793 C43.1258547,18.5018994 42.5335642,17.0091061 42.5335642,15.2555307 C42.5335642,13.5019553 43.1258547,12.0329609 44.3344022,10.824581 C45.5429497,9.61603352 47.035743,8.99994413 48.7891508,8.99994413 C50.5427263,8.99994413 52.0355196,9.61603352 53.244067,10.824581 C54.4524469,12.0329609 55.0687039,13.5019553 55.0687039,15.2555307 C55.0687039,17.0091061 54.4524469,18.5018994 53.244067,19.7102793 C52.0355196,20.9188268 50.5427263,21.5112849 48.7891508,21.5112849"></path>
        <g transform="translate(60.340782, 0)">
          <path fill="#1E1E1E" d="M21.9481285,20.3210726 L17.6634916,20.3210726 L14.589581,10.6337542 L17.887067,10.6337542 L19.6193575,16.3158212 L19.992095,16.3158212 L21.7245531,10.6337542 L25.0220391,10.6337542 L21.9481285,20.3210726 Z M13.5296927,13.6141453 C13.5296927,13.6143128 13.5295251,13.6144804 13.5293575,13.6144804 L10.8608659,13.6144804 L10.8608659,17.3403464 L13.5296927,17.3403464 L13.5296927,20.3210726 L10.9476816,20.3210726 L10.4629888,20.3210726 C8.99600559,20.3210726 7.60075419,18.9507933 7.60075419,17.458838 L7.60075419,16.7829162 L7.60075419,13.6144804 L5.90349162,13.6144804 L5.90349162,10.6337542 L7.60075419,10.6337542 L7.60075419,7.65302793 L10.8608659,7.65302793 L10.8608659,10.6337542 L13.5296927,10.6337542 L13.5296927,13.6141453 Z M15.1103073,1.06727374 C7.33879888,1.06727374 1.03863128,6.89481564 1.03863128,14.0832514 C1.03863128,19.3924134 3.26231844,21.9266592 6.30773743,24.237162 L6.32231844,24.2435307 L6.32231844,30.4739777 C6.32231844,30.7679441 6.65751397,30.9365475 6.89365922,30.7610726 L12.2296369,26.7972179 L12.3444413,26.8469944 C13.2389106,27.0119106 14.1637151,27.0990615 15.1103073,27.0990615 C22.8819832,27.0990615 29.1819832,21.2715196 29.1819832,14.0832514 C29.1819832,6.89481564 22.8819832,1.06727374 15.1103073,1.06727374 L15.1103073,1.06727374 Z"></path>
        </g>
      </g>
    </g>
  </g>
</svg>